#N canvas 541 199 445 267 10;
#X obj 12 33 unpackOSC;
#X obj 12 54 routeOSC /data0 /data1 /data2 /data3 /data4 /data5 /data6
/data7, f 66;
#X floatatom 12 75 5 0 0 0 - - -;
#X floatatom 61 75 5 0 0 0 - - -;
#X floatatom 110 75 5 0 0 0 - - -;
#X floatatom 159 75 5 0 0 0 - - -;
#X floatatom 208 75 5 0 0 0 - - -;
#X floatatom 257 75 5 0 0 0 - - -;
#X floatatom 306 75 5 0 0 0 - - -;
#X floatatom 355 75 5 0 0 0 - - -;
#X obj 12 12 udpreceive 7200;
#X obj 12 95 s data0;
#X obj 110 95 s data2;
#X obj 159 95 s data3;
#X obj 208 95 s data4;
#X obj 257 95 s data5;
#X obj 306 95 s data6;
#X obj 355 95 s data7;
#X obj 61 95 s data1;
#X obj 212 191 s decay;
#X floatatom 212 168 5 0 0 0 - - -;
#X obj 77 142 hsl 40 20 0 1 0 0 empty empty empty -2 -8 0 10 -262144
-1 -1 200 1;
#X obj 135 141 hsl 40 20 0 1 0 0 empty empty empty -2 -8 0 10 -262144
-1 -1 0 1;
#X obj 16 142 hsl 40 20 0 1 0 0 empty empty empty -2 -8 0 10 -262144
-1 -1 0 1;
#X msg 13 167 wet \$1;
#X msg 74 167 dry \$1;
#X msg 132 166 roomsize \$1;
#X obj 215 141 hsl 40 20 0 2000 0 0 empty empty empty -2 -8 0 10 -262144
-1 -1 1300 1;
#X obj 13 188 s wet;
#X obj 74 188 s dry;
#X obj 132 187 s room;
#X connect 0 0 1 0;
#X connect 1 0 2 0;
#X connect 1 1 3 0;
#X connect 1 2 4 0;
#X connect 1 3 5 0;
#X connect 1 4 6 0;
#X connect 1 5 7 0;
#X connect 1 6 8 0;
#X connect 1 7 9 0;
#X connect 2 0 11 0;
#X connect 3 0 18 0;
#X connect 4 0 12 0;
#X connect 5 0 13 0;
#X connect 6 0 14 0;
#X connect 7 0 15 0;
#X connect 8 0 16 0;
#X connect 9 0 17 0;
#X connect 10 0 0 0;
#X connect 20 0 19 0;
#X connect 21 0 25 0;
#X connect 22 0 26 0;
#X connect 23 0 24 0;
#X connect 24 0 28 0;
#X connect 25 0 29 0;
#X connect 26 0 30 0;
#X connect 27 0 20 0;
