#N canvas 703 300 1081 389 10;
#X obj 443 119 clone synth.cl 64;
#X floatatom 443 68 5 0 0 0 - - -;
#X msg 443 96 next \$1;
#X obj 494 265 *~;
#X obj 574 166 hsl 40 20 0 0.25 0 0 empty empty empty -2 -8 0 10 -262144
-1 -1 0 1;
#X obj 444 303 dac~;
#X obj 138 202 tgl 15 0 empty empty empty 17 7 0 10 -262144 -1 -1 1
1;
#X floatatom 138 284 5 0 0 0 - - -;
#X obj 571 213 line~;
#X msg 571 192 \$1 100;
#X obj 102 254 + 12;
#X obj 162 255 pipe 667;
#X obj 443 175 freeverb~;
#X obj 359 134 r wet;
#X obj 398 116 r dry;
#X obj 341 161 r room;
#X obj 444 266 *~;
#X floatatom 571 117 5 0 0 0 - - -;
#X obj 571 137 / 1000;
#X msg 79 145 \; notes6 0 72 75 58 56 79 60;
#X obj 443 41 r notes6;
#X obj 571 96 r data6;
#X obj 138 304 s notes6;
#N canvas 483 216 268 204 arpegio6 0;
#X floatatom 13 187 5 0 0 0 - - -;
#X floatatom 13 230 5 0 0 0 - - -;
#X obj 13 51 inlet;
#X obj 13 99 bng 15 250 50 0 empty empty empty 17 7 0 10 -262144 -1
-1;
#X obj 13 122 i 0;
#X obj 13 143 + 1;
#X obj 13 164 % 6;
#X obj 13 250 outlet;
#X obj 13 72 metro 140;
#X obj 14 17 table notes6;
#X obj 13 209 tabread notes6;
#X connect 0 0 10 0;
#X connect 1 0 7 0;
#X connect 2 0 8 0;
#X connect 3 0 4 0;
#X connect 4 0 5 0;
#X connect 5 0 6 0;
#X connect 6 0 4 1;
#X connect 6 0 0 0;
#X connect 8 0 3 0;
#X connect 10 0 1 0;
#X restore 138 226 pd arpegio6;
#X connect 0 0 12 0;
#X connect 0 0 12 1;
#X connect 1 0 2 0;
#X connect 2 0 0 0;
#X connect 3 0 5 1;
#X connect 4 0 9 0;
#X connect 6 0 23 0;
#X connect 7 0 22 0;
#X connect 8 0 3 1;
#X connect 8 0 16 1;
#X connect 9 0 8 0;
#X connect 12 0 16 0;
#X connect 12 1 3 0;
#X connect 13 0 12 0;
#X connect 14 0 12 0;
#X connect 15 0 12 0;
#X connect 16 0 5 0;
#X connect 17 0 18 0;
#X connect 18 0 4 0;
#X connect 20 0 1 0;
#X connect 21 0 17 0;
#X connect 23 0 7 0;
